<svg version="1.1" id="index-setting-role-manager" xmlns="http://www.w3.org/2000/svg" xmlns:xlink="http://www.w3.org/1999/xlink" x="0px" y="0px" viewBox="0 0 623.6 878.7" enable-background="new 0 0 623.6 878.7" xml:space="preserve">
    <g>
    <g>
    <path fill="#8D97A3" d="M596.1,631.6c-5.9-5.8-12.4-10.6-19.4-14.6c5.8-8.7,9.2-19.1,9.2-30.3c0-23.8-15.3-44.1-36.5-51.7v-45.3
			        c0-37.9-30.8-68.7-68.7-68.7h-40.9v-18.3c0-49.6-27.9-92.8-68.7-114.4c19.7-16.8,32.2-41.7,32.2-69.5c0-50.4-41-91.4-91.4-91.4
			        s-91.4,41-91.4,91.4c0,27.8,12.5,52.7,32.2,69.5c-40.8,21.6-68.7,64.8-68.7,114.4v18.3H143c-37.9,0-68.7,30.8-68.7,68.7v45.3
			        c-21.3,7.5-36.5,27.8-36.5,51.7c0,11.2,3.4,21.6,9.2,30.3c-7,4-13.5,8.8-19.4,14.6C9.8,649,0,672,0,696.4v36.5
			        c0,10.1,8.2,18.3,18.3,18.3h147.4c10.1,0,18.3-8.2,18.3-18.3v-36.5c0-33.8-18.5-63.3-45.8-79.1c5.9-8.7,9.3-19.2,9.3-30.5
			        c0-23.8-15.3-44.1-36.5-51.7v-45.3c0-17.7,14.4-32.2,32.2-32.2c5.6,0,144.5,0,150.5,0v77.4c-21.3,7.5-36.5,27.8-36.5,51.7
			        c0,11.3,3.4,21.8,9.3,30.5c-27.4,15.8-45.8,45.3-45.8,79.1v36.5c0,10.1,8.2,18.3,18.3,18.3h146.2c10.1,0,18.3-8.2,18.3-18.3v-36.5
			        c0-33.8-18.5-63.3-45.8-79.1c5.9-8.7,9.3-19.2,9.3-30.5c0-23.8-15.3-44.1-36.5-51.7v-77.4c6.1,0,144.9,0,150.5,0
			        c17.7,0,32.2,14.4,32.2,32.2v45.3c-21.3,7.5-36.5,27.8-36.5,51.7c0,11.3,3.4,21.8,9.3,30.5c-27.4,15.8-45.8,45.3-45.8,79.1v36.5
			        c0,10.1,8.2,18.3,18.3,18.3h147.4c10.1,0,18.3-8.2,18.3-18.3v-36.5C623.6,672,613.8,649,596.1,631.6z M92.6,568.5
			        c10.1,0,18.3,8.2,18.3,18.3c0,10.1-8.2,18.3-18.3,18.3s-18.3-8.2-18.3-18.3C74.3,576.7,82.5,568.5,92.6,568.5z M147.4,696.4v18.3
			        H36.5v-18.3c0-29.7,25.7-54.8,56-54.8C122.8,641.6,147.4,666.1,147.4,696.4z M311.8,164.1c30.2,0,54.8,24.6,54.8,54.8
			        s-24.6,54.8-54.8,54.8S257,249.1,257,218.9S281.6,164.1,311.8,164.1z M311.8,568.5c10.1,0,18.3,8.2,18.3,18.3
			        c0,10.1-8.2,18.3-18.3,18.3s-18.3-8.2-18.3-18.3C293.5,576.7,301.7,568.5,311.8,568.5z M366.6,696.4v18.3H257v-18.3
			        c0-30.2,24.6-54.8,54.8-54.8C342,641.6,366.6,666.1,366.6,696.4z M403.2,421.1H220.5v-18.3c0-51,41-92.6,91.4-92.6
			        s91.4,41.5,91.4,92.6V421.1z M531.1,568.5c10.1,0,18.3,8.2,18.3,18.3c0,10.1-8.2,18.3-18.3,18.3s-18.3-8.2-18.3-18.3
			        C512.8,576.7,521,568.5,531.1,568.5z M587.1,714.6H476.2v-18.3c0-30.2,24.6-54.8,54.8-54.8c30.4,0,56,25.1,56,54.8V714.6z"></path>
	    </g>
    </g>
</svg>